<svg width="235" height="100" xmlns="http://www.w3.org/2000/svg" xmlns:xlink="http://www.w3.org/1999/xlink"><g transform="translate(-3321 -431)"><mask id="a"><use xlink:href="#path0_fill" transform="translate(3321 431)" fill="#E12A2C"/></mask><g mask="url(#a)"><use xlink:href="#path0_fill" transform="translate(3321 431)" fill="#F1F1F1"/></g></g><use xlink:href="#path1_fill" transform="translate(86.99 21.781)" fill="#E12A2C"/><defs><path id="path0_fill" d="M0 0h235v100H0V0z"/><path id="path1_fill" fill-rule="evenodd" d="M51.113 17.945a41.814 41.814 0 0 0-2-.63c.11-.454.214-.91.308-1.367 1.515-7.361.525-13.291-2.858-15.243-3.243-1.873-8.547.08-13.903 4.746-.528.46-1.044.935-1.548 1.422-.338-.324-.68-.642-1.03-.953C24.468.93 18.84-1.172 15.462.786c-3.24 1.877-4.2 7.452-2.836 14.428.136.691.29 1.379.46 2.062-.796.226-1.566.467-2.301.724C4.203 20.297 0 23.897 0 27.63c0 3.858 4.512 7.726 11.368 10.071.556.19 1.116.365 1.68.526a40.792 40.792 0 0 0-.488 2.222c-1.3 6.855-.284 12.298 2.947 14.164 3.338 1.926 8.939-.054 14.394-4.827a35.35 35.35 0 0 0 1.297-1.197 40.92 40.92 0 0 0 1.68 1.535c5.284 4.551 10.502 6.389 13.73 4.518 3.335-1.932 4.418-7.78 3.011-14.893a35.692 35.692 0 0 0-.372-1.664c.393-.116.779-.236 1.156-.361 7.127-2.364 11.763-6.185 11.763-10.093 0-3.748-4.339-7.372-11.053-9.686zm-1.546 17.256c-.34.112-.688.221-1.044.327-.787-2.494-1.849-5.145-3.148-7.884 1.24-2.674 2.261-5.291 3.026-7.769.636.185 1.253.38 1.848.584 5.753 1.982 9.261 4.913 9.261 7.172 0 2.405-3.79 5.529-9.943 7.57zm-2.553 5.064c.622 3.146.711 5.99.299 8.213-.37 1.998-1.115 3.33-2.035 3.863-1.96 1.136-6.15-.34-10.668-4.232a38.228 38.228 0 0 1-1.563-1.427c1.752-1.918 3.503-4.147 5.211-6.623 3.005-.267 5.845-.704 8.42-1.3.126.513.239 1.015.336 1.506zm-25.82 11.88c-1.915.677-3.439.696-4.36.164-1.961-1.131-2.776-5.502-1.665-11.364.133-.693.284-1.382.454-2.066 2.547.563 5.365.97 8.378 1.214 1.72 2.422 3.521 4.65 5.336 6.6-.385.373-.78.737-1.184 1.091-2.412 2.11-4.829 3.608-6.96 4.361zm-8.967-16.96c-3.032-1.036-5.535-2.384-7.251-3.855-1.542-1.322-2.32-2.634-2.32-3.7 0-2.265 3.375-5.155 9.003-7.12.707-.245 1.42-.47 2.14-.674.778 2.533 1.798 5.181 3.03 7.86-1.248 2.718-2.283 5.408-3.068 7.97a32.647 32.647 0 0 1-1.534-.48zm3.006-20.481c-1.169-5.977-.393-10.486 1.56-11.617 2.08-1.206 6.678.513 11.525 4.821.31.276.621.564.933.862-1.806 1.942-3.59 4.152-5.296 6.56-2.923.272-5.722.707-8.295 1.291a38.738 38.738 0 0 1-.427-1.917zm26.815 6.628a84.39 84.39 0 0 0-1.89-3.112c1.983.25 3.884.584 5.668.992a56.732 56.732 0 0 1-1.99 5.358 92.23 92.23 0 0 0-1.788-3.238zM31.113 10.67a56.83 56.83 0 0 1 3.658 4.42 78.145 78.145 0 0 0-7.347 0 58.616 58.616 0 0 1 3.689-4.42zM20.107 21.35a78.561 78.561 0 0 0-1.755 3.218 58.696 58.696 0 0 1-1.975-5.384 59.832 59.832 0 0 1 5.636-.969 78.18 78.18 0 0 0-1.906 3.135zm1.963 15.886a56.521 56.521 0 0 1-5.73-.922 59.644 59.644 0 0 1 2.015-5.493 78.364 78.364 0 0 0 3.715 6.415zm9.116 7.544a59.747 59.747 0 0 1-3.74-4.481c1.19.047 2.404.07 3.637.07 1.267 0 2.52-.028 3.753-.083a56.565 56.565 0 0 1-3.65 4.494zm12.676-14.055a56.544 56.544 0 0 1 2.087 5.474 56.322 56.322 0 0 1-5.799.99 93.139 93.139 0 0 0 1.909-3.167 84.43 84.43 0 0 0 1.803-3.297zm-4.104 1.97a87.033 87.033 0 0 1-2.982 4.816c-1.845.132-3.75.2-5.693.2-1.934 0-3.816-.06-5.628-.178a75.375 75.375 0 0 1-5.69-9.838 75.204 75.204 0 0 1 5.658-9.82 75.169 75.169 0 0 1 11.331.002 80.093 80.093 0 0 1 2.996 4.787 87.123 87.123 0 0 1 2.68 4.993 79.896 79.896 0 0 1-2.672 5.037zm5.479-29.687c2.081 1.202 2.891 6.048 1.583 12.403-.086.414-.179.827-.28 1.237-2.578-.595-5.38-1.039-8.312-1.314-1.708-2.435-3.477-4.649-5.254-6.565.465-.45.942-.887 1.43-1.313 4.589-3.998 8.878-5.577 10.833-4.448zM36.634 27.63a5.554 5.554 0 0 0-5.551-5.557 5.554 5.554 0 0 0-5.551 5.557 5.554 5.554 0 0 0 5.551 5.557 5.554 5.554 0 0 0 5.551-5.557z"/></defs></svg>