<svg xmlns="http://www.w3.org/2000/svg" xmlns:xlink="http://www.w3.org/1999/xlink" width="66" height="47"><use xlink:href="#path0_fill" fill="#404040"/><defs><path id="path0_fill" d="M40.844 32.746c2.015 3.289 4.635 5.706 9.27 5.706 3.894 0 6.381-1.946 6.381-4.634 0-3.223-2.555-4.364-6.841-6.239l-2.35-1.008c-6.78-2.889-11.285-6.508-11.285-14.158C36.019 5.365 41.389 0 49.781 0c5.975 0 10.27 2.08 13.365 7.524l-7.317 4.698c-1.611-2.889-3.35-4.027-6.048-4.027-2.752 0-4.497 1.746-4.497 4.027 0 2.82 1.746 3.96 5.778 5.707l2.35 1.006c7.983 3.424 12.491 6.914 12.491 14.762 0 8.46-6.646 13.095-15.571 13.095-8.727 0-14.365-4.159-17.124-9.61l7.636-4.436zM7.65 33.56c1.476 2.62 2.82 4.834 6.048 4.834 3.087 0 5.035-1.208 5.035-5.905V.537h9.397v32.079c0 9.73-5.705 14.159-14.032 14.159C6.573 46.775 2.216 42.88 0 38.19l7.65-4.63z"/></defs></svg>