<svg width="235" height="100" xmlns="http://www.w3.org/2000/svg" xmlns:xlink="http://www.w3.org/1999/xlink"><g transform="translate(-3066 -431)"><mask id="a"><use xlink:href="#path0_fill" transform="translate(3066 431)" fill="#EDEDED"/></mask><g mask="url(#a)"><use xlink:href="#path0_fill" transform="translate(3066 431)" fill="#F1F1F1"/></g></g><use xlink:href="#path1_fill" transform="translate(87 18)" fill="#E12A2C"/><use xlink:href="#path2_fill" transform="translate(117.09 18)" fill="#BA2324"/><use xlink:href="#path3_fill" transform="translate(98.39 25.473)" fill="#FFF"/><defs><path id="path0_fill" d="M0 0h235v100H0V0z"/><path id="path1_fill" d="M0 10.608L30.095 0 61 10.42l-5.004 39.39L30.095 64 4.599 49.998 0 10.608z"/><path id="path2_fill" d="M30.905 10.42L0 0v64l25.901-14.167 5.004-39.414z"/><path id="path3_fill" d="M18.753 0L0 41.276l7.005-.118 3.765-9.311h16.823l4.122 9.429 6.696.118L18.752 0zm.047 13.224l6.338 13.107H13.225L18.8 13.224z"/></defs></svg>