<svg width="235" height="100" xmlns="http://www.w3.org/2000/svg" xmlns:xlink="http://www.w3.org/1999/xlink"><use xlink:href="#path0_fill" fill="#F1F1F1"/><use xlink:href="#path1_fill" transform="translate(47 20)" fill="#404040"/><use xlink:href="#path2_fill" transform="translate(84.32 38.02)" fill="#6CAB39"/><defs><path id="path0_fill" d="M0 0h235v100H0V0z"/><path id="path1_fill" fill-rule="evenodd" d="M93.96 0a.757.757 0 0 0-.374.1.755.755 0 0 0-.374.648v19.067a.505.505 0 0 1-.25.449.521.521 0 0 1-.523 0l-3.12-1.795a1.496 1.496 0 0 0-1.496 0l-12.45 7.178a1.53 1.53 0 0 0-.749 1.321v14.357c0 .536.284 1.027.749 1.296l12.45 7.178a1.493 1.493 0 0 0 1.497 0l12.45-7.178c.465-.27.748-.76.748-1.297V5.535c0-.545-.297-1.056-.773-1.322L94.335.075A.733.733 0 0 0 93.96 0zM13.873 17.92c-.237.01-.46.052-.674.175L.748 25.273A1.489 1.489 0 0 0 0 26.57l.025 19.267c0 .268.138.517.374.648a.727.727 0 0 0 .749 0l7.385-4.237c.468-.278.773-.76.773-1.296v-8.998c0-.537.283-1.03.749-1.296l3.143-1.82c.235-.135.487-.199.749-.199.256 0 .52.064.748.2l3.144 1.819c.466.267.748.76.748 1.296v8.998c0 .535.31 1.021.774 1.296l7.385 4.237a.727.727 0 0 0 .748 0 .75.75 0 0 0 .375-.648l.025-19.267c0-.54-.282-1.028-.749-1.296l-12.45-7.178a1.398 1.398 0 0 0-.673-.174h-.15zm111.874.175c-.26 0-.515.066-.748.2l-12.45 7.178a1.49 1.49 0 0 0-.748 1.296v14.356c0 .54.304 1.03.773 1.296l12.35 7.029a1.5 1.5 0 0 0 1.472.025l7.485-4.163a.754.754 0 0 0 .399-.648.736.736 0 0 0-.374-.648l-12.525-7.178a.806.806 0 0 1-.399-.673v-4.486c0-.269.167-.514.399-.648l3.892-2.244a.749.749 0 0 1 .749 0l3.892 2.244c.233.134.374.38.374.648v3.539c0 .268.142.514.375.648a.743.743 0 0 0 .748 0l7.46-4.337c.463-.269.748-.761.748-1.296v-3.465c0-.535-.284-1.027-.748-1.296l-12.375-7.178a1.485 1.485 0 0 0-.749-.2v.001zM88.522 28.813a.42.42 0 0 1 .2.049l4.266 2.468c.115.067.2.19.2.324v4.935a.384.384 0 0 1-.2.324L88.72 39.38a.378.378 0 0 1-.374 0l-4.267-2.467a.385.385 0 0 1-.2-.324v-4.935c0-.134.085-.257.2-.325l4.267-2.467a.33.33 0 0 1 .175-.05z"/><path id="path2_fill" fill-rule="evenodd" d="M13.947 0c-.26 0-.516.065-.749.2L.748 7.352A1.531 1.531 0 0 0 0 8.673V23.03c0 .537.283 1.028.748 1.296l12.45 7.178a1.492 1.492 0 0 0 1.497 0l12.45-7.178c.465-.268.749-.76.749-1.296V8.674a1.53 1.53 0 0 0-.749-1.321L14.695.199C14.463.065 14.206 0 13.947 0zm74.45 12.811c-.05 0-.105 0-.15.025l-2.395 1.396a.29.29 0 0 0-.15.249v2.742c0 .103.06.198.15.249l2.395 1.37c.09.053.186.053.275 0l2.395-1.37a.293.293 0 0 0 .15-.25v-2.741a.293.293 0 0 0-.15-.25l-2.395-1.395c-.045-.026-.076-.025-.125-.025z"/></defs></svg>