<svg width="235" height="100" xmlns="http://www.w3.org/2000/svg" xmlns:xlink="http://www.w3.org/1999/xlink"><use xlink:href="#path0_fill" fill="#F1F1F1"/><g transform="translate(85 26)" fill="#295FBE"><use xlink:href="#path1_fill"/><use xlink:href="#path2_fill"/></g><defs><path id="path0_fill" d="M0 0h235v100H0V0z"/><path id="path1_fill" d="M34.417 8.445V0H0v8.445h12.213V47h9.992V8.445h12.212z"/><path id="path2_fill" d="M62.284 1.432c-.592-.22-2.294-.624-3.812-.918-7.105-1.285-14.1-.11-18.319 3.084-4.959 3.709-6.069 11.86-2.368 17.185 1.665 2.423 3.442 3.672 9.067 6.426 6.365 3.084 7.92 4.48 7.92 7.16 0 1.395-.185 1.872-1.11 2.717-1.481 1.395-3.887 1.983-7.143 1.762-3.257-.22-6.366-1.285-8.771-3.01l-1.85-1.322v10.207l2.331.772c6.513 2.13 14.84 1.909 19.947-.478 2.406-1.138 4.848-3.598 5.959-6.022 1.184-2.57 1.147-8.298-.075-11.015-1.369-3.048-4.367-5.508-10.288-8.409-2.812-1.395-5.699-3.084-6.476-3.819-1.221-1.138-1.406-1.542-1.406-3.01 0-1.36.185-1.873 1.073-2.718.592-.587 1.74-1.285 2.516-1.505 3.257-.955 8.586-.257 11.917 1.615.888.478 1.665.882 1.74.882.073 0 .147-2.057.147-4.59v-4.59l-.999-.404z"/></defs></svg>