<svg xmlns="http://www.w3.org/2000/svg"><g fill="none" fill-rule="evenodd"><circle fill="#FFF" cx="20" cy="20" r="20"/><path d="M38.076 11.433A19.973 19.973 0 0 0 20 0c-2.458 0-4.858.441-7.134 1.31A20.056 20.056 0 0 0 2.47 10.365 20.012 20.012 0 0 0 0 20c0 .894.06 1.792.177 2.671a19.954 19.954 0 0 0 7.968 13.438l.078.058h.002A19.85 19.85 0 0 0 20 40a19.868 19.868 0 0 0 14.122-5.838A19.962 19.962 0 0 0 40 20c0-2.997-.647-5.88-1.924-8.567zM33.67 33.16l2.396-6.393 2.912-5.505.373.219a19.372 19.372 0 0 1-5.413 12.021l-.268-.342zm-21.522 2.736l-1.56-5.091 6.237-2.814 7.503 2.341 1.42 4.994-6.292 2.958-7.308-2.388zM13.27 5.16l6.466 1.686 1.007 6.923-5.804 5.518-6.873-1.694-1.153-7.004L13.27 5.16zm25.278 15.648l-2.892 5.467-4.524-1.736-1.65-8.082 3.222-5.183 4.12 1.539 1.724 7.995zm-17.411-6.595l7.775 2.419 1.636 8.012-6.046 5.122-7.444-2.323-1.707-7.729 5.786-5.5zm16.329-2.681l-.496.702-4.218-1.575-5.117-5.697v-2.81a19.38 19.38 0 0 1 9.83 9.38zM27.04 1.912v2.922l-7.033 1.47-6.532-1.703-.193-2.812A19.336 19.336 0 0 1 20 .594c2.432 0 4.8.444 7.041 1.318zM2.908 10.803l3.433-.032 1.156 7.026-2.707 6.317H1.693l-.935-1.581a19.422 19.422 0 0 1 2.15-11.73zM1.745 26.6l.066-1.89h3.036l5.114 6.078 1.537 5.018-3.07-.224A19.358 19.358 0 0 1 1.745 26.6zm18.027 12.807v-.614l6.437-3.026 7.018-2.208.288.368a19.277 19.277 0 0 1-13.743 5.48z" fill="#000"/></g></svg>