<svg name="visa_mastercard" width="85px" height="26px" xmlns="http://www.w3.org/2000/svg" viewBox="0 0 85 26"><g fill="none" fill-rule="evenodd"><path fill="#265697" d="M82 .255H47c-1 0-2 1.02-2 2.04v20.39c0 2.04 1 3.06 3 3.06h34c2 0 3-1.02 3-3.06V3.316c0-2.04-1-3.06-3-3.06z"/><path fill="#DFAC16" d="M82.386 13.127c.002 5.924-4.656 10.727-10.404 10.728-5.747.002-10.407-4.8-10.41-10.722v-.006C61.573 7.204 66.23 2.4 71.978 2.4c5.748-.002 10.408 4.8 10.41 10.722v.005z"/><path fill="#BF3126" d="M57.953 2.402c-5.713.038-10.34 4.828-10.34 10.725 0 5.92 4.663 10.725 10.407 10.725 2.696 0 5.154-1.06 7.003-2.794.38-.356.733-.74 1.058-1.15h-2.13c-.286-.353-.545-.723-.777-1.104h3.677c.224-.37.426-.752.606-1.148h-4.89c-.167-.368-.312-.745-.435-1.127h5.76c.348-1.07.537-2.214.537-3.403 0-.788-.083-1.556-.24-2.296h-6.362c.08-.38.18-.756.297-1.126h5.763c-.13-.393-.28-.777-.45-1.148h-4.87c.176-.387.375-.764.597-1.127h3.675c-.245-.402-.515-.786-.808-1.15h-2.05c.317-.384.666-.745 1.044-1.083-1.85-1.735-4.307-2.795-7.004-2.795h-.067s.023 0 0 0z"/><path fill="#FFF" d="M61.762 15.858l.14-.97c-.077 0-.188.033-.286.033-.386 0-.43-.21-.404-.367l.31-1.98h.588l.14-1.074H61.7l.113-.67h-1.107c-.024.027-.654 3.757-.654 4.21 0 .673.365.973.882.968.404-.004.72-.12.83-.15 0 0-.11.03 0 0zM62.113 14.007c0 1.614 1.034 1.998 1.915 1.998.812 0 1.17-.188 1.17-.188l.195-1.1s-.618.28-1.177.28c-1.19 0-.98-.915-.98-.915h2.25s.146-.74.146-1.04c0-.753-.363-1.67-1.58-1.67-1.114 0-1.94 1.237-1.94 2.635 0 0 0-1.398 0 0zm1.944-1.612c.625 0 .51.724.51.782h-1.23c0-.074.116-.782.72-.782 0 0-.604 0 0 0zM71.073 15.858l.198-1.245s-.542.28-.916.28c-.786 0-1.1-.618-1.1-1.282 0-1.348.675-2.09 1.428-2.09.565 0 1.018.328 1.018.328l.18-1.21s-.67-.28-1.247-.28c-1.28 0-2.524 1.143-2.524 3.29 0 1.425.67 2.366 1.994 2.366.374 0 .97-.156.97-.156zM55.668 11.39c-.76 0-1.342.25-1.342.25l-.16.985s.48-.2 1.207-.2c.412 0 .714.047.714.392 0 .21-.037.287-.037.287s-.325-.028-.476-.028c-.958 0-1.965.422-1.965 1.693 0 1 .66 1.23 1.07 1.23.78 0 1.117-.523 1.135-.525l-.036.437h.975l.435-3.145c0-1.334-1.13-1.377-1.522-1.377zm.238 2.56c.02.192-.117 1.093-.784 1.093-.344 0-.434-.27-.434-.43 0-.314.165-.69.977-.69.19 0 .21.022.24.027 0 0-.03-.005 0 0zM58.227 15.977c.25 0 1.676.065 1.676-1.452 0-1.42-1.32-1.14-1.32-1.71 0-.282.215-.372.608-.372.157 0 .758.052.758.052l.14-1.01s-.39-.088-1.022-.088c-.82 0-1.652.337-1.652 1.49 0 1.308 1.387 1.177 1.387 1.728 0 .367-.386.397-.685.397-.517 0-.982-.183-.984-.174l-.147.998c.027.01.314.14 1.244.14 0 0-.93 0 0 0zM80.25 10.485l-.238 1.528s-.417-.593-1.07-.593c-1.015 0-1.86 1.26-1.86 2.71 0 .936.45 1.853 1.373 1.853.663 0 1.03-.477 1.03-.477l-.047.407h1.077l.847-5.43-1.11.002zm-.513 2.98c0 .603-.29 1.41-.89 1.41-.4 0-.587-.346-.587-.888 0-.885.386-1.47.873-1.47.4 0 .604.283.604.948 0 0 0-.665 0 0zM49.67 15.918l.673-4.1.1 4.1h.763l1.424-4.1-.63 4.1h1.133l.874-5.438h-1.754l-1.093 3.337-.056-3.337h-1.617l-.886 5.438h1.07zM66.74 15.926c.323-1.89.383-3.425 1.152-3.144.135-.732.265-1.015.412-1.325 0 0-.07-.015-.214-.015-.496 0-.863.7-.863.7l.098-.643h-1.03l-.692 4.426h1.137zM73.63 11.39c-.76 0-1.343.25-1.343.25l-.16.985s.48-.2 1.207-.2c.413 0 .714.047.714.392 0 .21-.036.287-.036.287s-.326-.028-.477-.028c-.958 0-1.964.422-1.964 1.693 0 1 .66 1.23 1.07 1.23.782 0 1.12-.523 1.137-.525l-.037.437h.976l.435-3.145c0-1.334-1.128-1.377-1.52-1.377zm.237 2.56c.02.192-.117 1.093-.784 1.093-.344 0-.433-.27-.433-.43 0-.314.164-.69.976-.69.19 0 .21.022.24.027 0 0-.03-.005 0 0zM76.043 15.926c.323-1.89.382-3.425 1.152-3.144.135-.732.265-1.015.412-1.325 0 0-.07-.015-.214-.015-.496 0-.864.7-.864.7l.098-.643h-1.032l-.69 4.426h1.137z"/><g><path fill="#F6F6F6" d="M0 2.475h40v19.802H0z"/><path fill="#265697" d="M37 .248H2c-1 0-2 .99-2 1.98v2.97h40v-1.98c0-1.98-1-2.97-3-2.97z"/><path fill="#D97B16" d="M0 20.05v1.98C0 24.01 1 25 3 25h34c2 0 3-.99 3-2.97v-1.98H0z"/><path fill="#265697" d="M27.904 7.62c-.56-.213-1.44-.442-2.536-.442-2.796 0-4.766 1.425-4.783 3.466-.015 1.51 1.406 2.35 2.48 2.854 1.1.514 1.47.843 1.466 1.302-.006.704-.878 1.026-1.692 1.026-1.132 0-1.734-.16-2.663-.55l-.365-.168-.397 2.35c.66.294 1.883.548 3.152.56 2.974 0 4.905-1.407 4.927-3.587.01-1.194-.743-2.103-2.375-2.852-.99-.486-1.595-.81-1.59-1.303 0-.436.514-.903 1.622-.903.924-.014 1.594.19 2.116.402l.254.122.384-2.277M35.16 7.37h-2.187c-.677 0-1.184.188-1.482.872l-4.2 9.625h2.97s.486-1.294.596-1.578l3.624.003c.085.368.344 1.574.344 1.574h2.626L35.16 7.37zm-3.49 6.77c.234-.605 1.128-2.936 1.128-2.936-.017.028.232-.608.375-1.002l.19.905.656 3.033h-2.35zM14.812 17.864l1.77-10.503h2.83l-1.77 10.504h-2.83zM12.44 7.368L9.67 14.53l-.296-1.455C8.858 11.397 7.25 9.58 5.454 8.67l2.534 9.184 2.994-.003L15.437 7.37H12.44"/><path fill="#D97B16" d="M7.1 7.362H2.535L2.5 7.58c3.55.87 5.9 2.97 6.874 5.495L8.382 8.25c-.172-.666-.67-.865-1.283-.888"/></g></g></svg>