<svg name="chain" style="width:20px;height:20px" xmlns="http://www.w3.org/2000/svg" viewBox="0 0 512 512"><path fill="#d8d8d8" d="M476.697 37.322l-2.015-2.02c-47.073-47.067-124.097-47.067-171.162 0L194.467 144.368c-47.066 47.065-47.066 124.087 0 171.154l2.014 2.013c3.917 3.924 8.074 7.462 12.37 10.73l39.923-39.928c-4.65-2.748-9.063-6.035-13.06-10.03l-2.02-2.02c-25.557-25.55-25.557-67.136 0-92.695L342.758 74.54c25.56-25.56 67.137-25.56 92.692 0l2.02 2.01c25.55 25.56 25.55 67.147 0 92.696L388.13 218.59c8.565 21.153 12.624 43.7 12.27 66.192L476.7 208.48c47.067-47.068 47.067-124.088-.003-171.158zM315.52 194.468c-3.915-3.916-8.072-7.46-12.368-10.72l-39.924 39.916c4.65 2.748 9.062 6.037 13.06 10.03l2.02 2.02c25.558 25.56 25.558 67.138 0 92.695L169.242 437.475c-25.56 25.553-67.138 25.553-92.694 0l-2.02-2.02c-25.55-25.562-25.55-67.14 0-92.695l49.343-49.342c-8.565-21.152-12.622-43.7-12.268-66.192l-76.3 76.3c-47.07 47.063-47.07 124.088 0 171.16l2.012 2.017c47.076 47.062 124.096 47.062 171.164 0l109.055-109.06c47.066-47.065 47.066-124.098 0-171.163l-2.012-2.012z"/></svg>