<svg xmlns="http://www.w3.org/2000/svg" width="20" height="20" fill="#ccc" viewBox="0 0 95.3 95.3"><path d="M30.5 44c-2.3-.7-4.7-1-7-1a22 22 0 0 0-8.7 1.7c2.2-8 7.5-22 18-23.5 1-.1 1.8-.9 2-1.8l2.3-8.2a2.5 2.5 0 0 0-2-3.2L32.7 8C20.1 7.9 7.6 21 2.3 39.9-.8 51-1.7 67.7 5.9 78.2c4.3 5.8 10.5 9 18.5 9.3h.1a22.2 22.2 0 0 0 19.3-33 22.2 22.2 0 0 0-13.3-10.6zM92.5 54.4A22.2 22.2 0 0 0 79 44c-2.3-.6-4.7-1-7-1a22 22 0 0 0-8.7 1.8c2.2-8 7.5-22 18-23.5 1-.1 1.8-.9 2-1.8l2.4-8.2A2.5 2.5 0 0 0 83.7 8L81.3 8C68.7 7.9 56.2 21 51 39.9c-3 11.1-4 27.8 3.6 38.3 4.3 5.8 10.5 9 18.6 9.3a22.2 22.2 0 0 0 19.4-33z"/></svg>