<svg name="write" xmlns="http://www.w3.org/2000/svg" viewBox="0 0 563.234 563.234"><g fill="#FFF"><path d="M416.2 335v124h-355V104h355v40.7l.2-.2.5-.6 13-13 16.8-17 28.5-28.4C468.8 61 446.3 43 420 43H57.3C25.8 43 0 68.6 0 100.3V463C0 494.4 25.8 520 57.4 520H420c31.6 0 57.4-25.8 57.4-57.4V274l-30.6 30.6-30.6 30.5z"></path><path d="M446.8 174.8l-17.4-17.4-13.2 13.3-182.5 182.5-10.4 79.6 79.6-10.4L416 309.2l30.6-30.6 30.6-30.6 21.3-21.3-21.3-21.3M507.8 96.4c-2.3-2.4-5.4-3.5-8.5-3.5-3.3 0-6.6 1-9 3.7l-13 12.8L447 140l-4 4 4 3.8 30.6 30.6 34.8 34.8 47.2-47.3c5-5 5-13 .3-17.7l-52-52z"></path></g></svg>