<svg name="paypal" width="127px" height="47px" xmlns="http://www.w3.org/2000/svg" viewBox="0 0 127 47" xmlns:xlink="http://www.w3.org/1999/xlink"><defs><path id="a" d="M0 32.694h126.148V.034H0v32.66z"/></defs><g fill="none" fill-rule="evenodd"><path fill="#369" d="M96.95 28.133c-.432.274-.888.51-1.365.71-.64.26-1.25.397-1.81.397-.864 0-1.528-.123-1.976-.387-.45-.25-.686-.684-.678-1.307 0-.718.164-1.275.504-1.712.342-.42.85-.76 1.48-1.012.63-.215 1.4-.392 2.29-.518.793-.1 2.358-.283 2.56-.285.2-.002.332-.114.243.425-.04.234-.493 2.11-.7 2.96-.06.256-.397.628-.55.728zm6.144-13.173c-1.32-.743-3.38-1.12-6.204-1.12-1.396 0-2.8.114-4.206.335-1.033.16-1.14.186-1.78.327-1.322.29-1.526 1.626-1.526 1.626l-.424 1.76c-.24 1.127.395 1.08.678.993.577-.175.89-.35 2.066-.618 1.124-.258 2.312-.45 3.26-.443 1.39 0 2.447.153 3.15.45.702.31 1.05.836 1.05 1.59.003.18.007.35-.057.497-.057.138-.168.27-.5.317-1.984.12-3.408.302-5.122.554-1.692.24-3.173.653-4.41 1.224-1.32.59-2.307 1.382-2.987 2.384-.66 1.006-.994 2.225-.996 3.662 0 1.357.483 2.464 1.418 3.323.945.85 2.175 1.27 3.663 1.27.93-.007 1.657-.075 2.18-.207.515-.13 1.078-.318 1.673-.578.444-.188.924-.46 1.43-.8.507-.34.858-.583 1.308-.88l.017.027-.127.564c0 .006-.008.01-.008.014l.004.01c-.145.68.26 1.246.927 1.313l.007.012h.06v.003c.444 0 1.963 0 2.674-.003h.496c.033 0 .037-.01.05-.018.68-.084 1.333-.645 1.487-1.317l2.536-11.055c.058-.26.104-.56.13-.906.033-.35.07-.638.06-.845.005-1.565-.66-2.72-1.976-3.465z"/><g transform="matrix(1 0 0 -1 .426 41.055)"><mask id="b" fill="#fff"><use xlink:href="#a"/></mask><g mask="url(#b)"><path fill="#1C3664" d="M59.034 26.97c-.744 0-1.72-.61-2.182-1.343 0 0-4.977-8.617-5.466-9.478-.266-.464-.535-.17-.58.002-.036.21-1.542 9.418-1.542 9.418-.17.74-.937 1.378-1.896 1.375l-3.103-.005c-.748 0-1.215-.605-1.048-1.336 0 0 2.372-13.58 2.834-16.773.232-1.766-.022-2.08-.022-2.08l-3.076-5.414C42.502.602 42.748 0 43.492 0l3.597.003c.744 0 1.73.6 2.174 1.334L63.1 24.967s1.322 2.02.102 2.002c-.832-.012-4.168 0-4.168 0M22.857 29.18c-.432.85-1.08 1.54-1.905 2.06-.857.535-1.853.903-3.015 1.125-1.168.21-2.533.315-4.1.33l-7.25-.006c-.752-.01-1.49-.607-1.664-1.338L.033 9.89c-.167-.735.303-1.342 1.054-1.342H4.56c.75 0 1.495.59 1.664 1.34L7.42 15.1c.16.728.903 1.33 1.656 1.33h.992c4.248.005 7.542.883 9.91 2.64 2.364 1.752 3.547 4.076 3.54 6.95.007 1.26-.21 2.317-.66 3.16m-7.5-7.012c-1.048-.773-2.5-1.16-4.383-1.16h-.852c-.75 0-1.224.6-1.058 1.34l1.045 4.55c.16.732.908 1.34 1.66 1.333l1.135.006c1.327 0 2.337-.23 3.018-.686.67-.444 1.012-1.146 1-2.09.02-1.42-.513-2.518-1.566-3.294"/></g></g><path fill="#369" d="M86.34 11.955c-.433-.85-1.087-1.535-1.913-2.068-.847-.532-1.854-.903-3.02-1.12-1.153-.204-2.523-.32-4.085-.324l-7.266.003c-.75.013-1.483.607-1.656 1.337l-4.885 21.47c-.178.73.308 1.337 1.043 1.333l3.486-.007c.74.006 1.493-.598 1.668-1.328l1.178-5.21c.165-.73.917-1.34 1.67-1.33h.99c4.253 0 7.55-.883 9.91-2.64 2.356-1.765 3.542-4.08 3.542-6.96-.008-1.257-.22-2.317-.662-3.157m-7.497 7.022c-1.04.764-2.5 1.148-4.38 1.148h-.865c-.747.008-1.23-.602-1.053-1.334l1.042-4.556c.155-.72.914-1.334 1.65-1.328l1.143-.006c1.333.006 2.33.23 3.018.68.677.452 1.005 1.155 1.01 2.09.003 1.427-.52 2.525-1.565 3.307"/><path fill="#1C3664" d="M33.88 28.117c-.432.274-.887.507-1.364.708-.642.26-1.253.398-1.813.398-.86 0-1.526-.124-1.975-.386-.45-.25-.685-.686-.678-1.308 0-.718.166-1.277.505-1.714.343-.42.85-.76 1.48-1.012.63-.215 1.403-.39 2.29-.517.793-.1 2.36-.282 2.56-.285.198 0 .332-.114.243.426-.04.234-.49 2.11-.7 2.96-.06.257-.397.63-.55.73zm6.144-13.174c-1.32-.743-3.38-1.12-6.204-1.12-1.396 0-2.798.114-4.206.335-1.035.158-1.14.185-1.782.326-1.32.292-1.524 1.626-1.524 1.626l-.424 1.762c-.24 1.126.396 1.08.678.992.575-.176.89-.35 2.066-.62 1.122-.256 2.312-.45 3.26-.442 1.39 0 2.446.153 3.148.45.704.31 1.05.837 1.05 1.59.005.18.008.35-.054.497-.06.138-.17.27-.503.316-1.983.12-3.406.303-5.124.555-1.692.242-3.172.654-4.41 1.225-1.32.59-2.305 1.383-2.984 2.384-.665 1.005-.997 2.224-.998 3.66 0 1.358.483 2.465 1.417 3.324.947.848 2.175 1.27 3.664 1.27.93-.008 1.657-.077 2.18-.207.516-.133 1.08-.32 1.672-.58.446-.186.924-.46 1.43-.8.507-.34.86-.582 1.312-.88l.014.028-.127.564c0 .004-.008.008-.008.014l.005.01c-.145.68.26 1.246.926 1.31l.008.014h.06v.004l2.673-.004h.496c.033 0 .037-.01.048-.018.683-.087 1.333-.646 1.49-1.316l2.535-11.056c.056-.26.103-.56.13-.905.033-.35.07-.637.06-.844.005-1.567-.662-2.724-1.976-3.467z"/><path fill="#369" d="M115.07 8.62h-3.11-.004c-.713 0-1.434.55-1.636 1.25-.008.028-.022.055-.03.084l-.2.932-4.27 19.54c-.098.44-.164.73-.184.804l.008.01c-.148.684.26 1.25.926 1.312l.01.013h3.224c.707 0 1.424-.545 1.632-1.236.01-.035.026-.066.033-.1l4.656-21.277-.007-.002c.157-.727-.307-1.33-1.05-1.33M120.953 12.95c-.106.03-.222.053-.348.07-.127.02-.24.03-.337.03-.347 0-.61-.095-.788-.282-.18-.188-.27-.49-.27-.902V10.05h-.384v-.483h.385v-.98h.57v.98h1.173v.484h-1.174v1.556c0 .18.004.32.01.42.01.102.038.195.086.283.044.08.105.14.183.177.077.04.196.058.355.058.093 0 .19-.014.29-.042.1-.027.174-.05.218-.07h.03v.518M126.574 12.98h-.568v-1.943c0-.146-.007-.288-.02-.424-.014-.137-.043-.246-.084-.328-.047-.087-.113-.154-.2-.198-.087-.045-.212-.067-.375-.067-.16 0-.318.04-.478.12-.16.08-.32.183-.48.307.007.048.01.102.016.164.004.063.006.125.006.186v2.185h-.568v-1.943c0-.15-.008-.294-.02-.43-.014-.135-.042-.243-.084-.324-.047-.088-.114-.153-.2-.198-.087-.043-.212-.065-.376-.065-.155 0-.31.04-.467.116-.156.077-.312.176-.468.296v2.55h-.57V9.566h.57v.38c.178-.15.355-.266.53-.35.178-.082.365-.125.565-.125.23 0 .425.05.586.147.16.097.28.232.36.406.23-.196.44-.338.63-.424.188-.086.39-.13.607-.13.37 0 .645.114.822.34.175.228.264.546.264.953v2.216"/></g></svg>