<svg  name="webmoney" width="140px" height="47px" xmlns="http://www.w3.org/2000/svg" viewBox="0 0 140 47"><g fill="#0068A3" fill-rule="evenodd"><path d="M122.34 6.085c2.745 0 5.343.634 7.658 1.76.363.17.726.36 1.09.567l-1.61 1.43-2.417-2.48-4.078 3.61-2.423-2.625-7.6 6.8 4.872 5.328-1.915 1.67 4.8 5.338-1.905 1.667 6.857 7.575 4.07-3.72 3.518 3.986c-.7.54-1.462 1.05-2.302 1.52-2.545 1.44-5.486 2.264-8.615 2.264-9.624 0-17.475-7.792-17.475-17.344 0-9.554 7.85-17.345 17.476-17.345"/><path d="M119.156 22.333l4.155-3.714 3.743 4.125-4.155 3.712-3.742-4.124M122.11 29.46l4.157-3.713 3.742 4.124-4.157 3.716-3.742-4.126M116.182 15.29l4.156-3.713 3.74 4.124-4.155 3.714-3.74-4.124M123.808 13.29l3.117-2.783 2.806 3.093-3.116 2.786-2.806-3.095M129.346 26.048l3.117-2.785 2.806 3.094-3.117 2.785-2.807-3.094M132.087 32.297l3.116-2.786 2.807 3.094-3.117 2.785-2.806-3.093M133.343 17.976l2.078-1.856 1.87 2.062-2.076 1.856-1.87-2.062M130.688 11.85l2.078-1.858 1.87 2.063-2.078 1.856-1.87-2.06M136 24.103l2.077-1.856 1.87 2.06-2.077 1.858-1.87-2.062M126.68 19.512l3.117-2.786 2.806 3.093-3.115 2.784-2.807-3.092M8.324 20.44h-.14l-2.632 9.875H3.4L.17 16.285H2.4l2.233 10.468h.14l2.592-10.47H9.14l2.773 10.47h.14l2.033-10.47h2.333l-3.23 14.032h-2.155l-2.71-9.875M25.255 28.138v1.504c-.897.515-2.094.91-3.53.91-3.35 0-4.725-2.058-4.725-5.185 0-3.007 1.536-5.184 4.526-5.184 2.492 0 4.028 1.603 4.028 4.828v.733h-6.5c0 2.375.977 3.424 3.03 3.424 1.077 0 2.074-.376 3.17-1.03zm-6.16-3.72h4.564c-.1-2.08-1.117-2.91-2.193-2.91-1.217 0-2.154.93-2.373 2.91zM29.44 20.915c.6-.316 1.616-.732 2.693-.732 2.472 0 3.808 1.702 3.808 4.87 0 3.7-1.793 5.5-4.684 5.5-1.057 0-2.692-.337-3.89-.97V15.77l2.075-.495v5.64zm-.018 7.935c.637.278 1.335.317 1.834.317 1.475 0 2.592-.91 2.592-4.115 0-2.514-.917-3.325-2.253-3.325-.798 0-1.376.217-2.173.653v6.47zM45.013 27.346h.1l4.267-11.062h2.473v14.03H49.7v-10.17h-.18l-4.068 10.17h-1.275l-4.07-9.933h-.178v9.935h-1.795v-14.03h2.412l4.466 11.06M54.046 25.367c0-3.463 1.914-5.184 4.546-5.184 2.632 0 4.547 1.72 4.547 5.184 0 3.385-1.816 5.186-4.548 5.186s-4.546-1.8-4.546-5.186zm7 0c0-2.67-1.098-3.8-2.454-3.8-1.316 0-2.453 1.13-2.453 3.8 0 2.712 1.037 3.8 2.452 3.8s2.453-1.088 2.453-3.8zM65.032 21.647c.897-.534 2.792-1.464 5.084-1.464 2.394 0 3.29.93 3.29 2.968v7.165h-2.073v-6.71c0-1.562-.777-1.84-1.794-1.84-.8 0-1.816.358-2.434.713v7.837h-2.074v-8.668M83.515 28.138v1.504c-.897.515-2.093.91-3.53.91-3.348 0-4.724-2.058-4.724-5.185 0-3.007 1.537-5.184 4.527-5.184 2.493 0 4.03 1.603 4.03 4.828v.733h-6.502c0 2.375.977 3.424 3.03 3.424 1.077 0 2.074-.376 3.17-1.03zm-6.16-3.72h4.565c-.1-2.08-1.116-2.91-2.193-2.91-1.217 0-2.153.93-2.372 2.91zM91.57 20.52h2.135l-3.61 9.894c-.997 2.73-2.213 4.155-4.505 4.155v-1.622c1.356 0 2.192-1.07 2.67-2.534l-3.827-9.895h2.193l2.553 7.28h.117l2.274-7.28"/></g></svg>