<svg name="yandexmoney" width="111px" height="47px" xmlns="http://www.w3.org/2000/svg" viewBox="0 0 111 47" xmlns:xlink="http://www.w3.org/1999/xlink"><defs><path id="a" d="M.06.04H111V46H.06V.04z"/><path id="c" d="M.06.04H111V46H.06"/></defs><g fill="none" fill-rule="evenodd"><g transform="translate(0 .5)"><mask id="b" fill="#fff"><use xlink:href="#a"/></mask><path fill="#EC1B23" d="M10.61 0H8.15C5.73 0 3.68 1.8 3.68 5.29c0 2.1.99 3.65 2.76 4.41l-3.3 5.84c-.11.19 0 .34.17.34h1.53c.13 0 .22-.04.26-.15L8.11 10h1.08v5.73c0 .07.06.15.15.15h1.34c.13 0 .17-.06.17-.17V.21c0-.15-.09-.21-.24-.21zM9.19 8.64h-.91c-1.43 0-2.81-1.02-2.81-3.56 0-2.64 1.3-3.72 2.61-3.72h1.11v7.28z" mask="url(#b)"/></g><path fill="#161617" d="M18.74 5.76H17.4c-.11 0-.18.09-.18.15v4.05h-2.48V5.91c0-.1-.04-.15-.15-.15h-1.34c-.11 0-.18.07-.18.15V16.2c0 .11.05.17.16.17h1.36c.08 0 .15-.06.15-.17v-4.91h2.48v4.91c0 .11.07.17.18.17h1.34c.11 0 .15-.08.15-.17V5.91c0-.08-.07-.15-.15-.15M49.33 15.7l-.17-.73c-.02-.06-.04-.08-.11-.08-.1 0-.69.23-1.53.23-1.64 0-2.44-1.54-2.44-4 0-2.16.67-4.3 1.79-4.3.3 0 .67.09 1.25.62.07.06.11.08.18.08.06 0 .13-.04.19-.15l.59-.93c.04-.06.06-.13.06-.19 0-.08-.09-.15-.22-.21-.88-.44-1.49-.53-2.01-.53-2.03 0-3.61 2.37-3.61 6.08 0 3.19 1.52 5.04 3.68 5.04.91 0 1.88-.43 2.27-.7.08-.07.11-.15.08-.23M39.94 10.55l2.59-4.64c.05-.06.03-.15-.06-.15h-1.28c-.36 0-.49.13-.62.41l-1.95 3.96c-.11.23-.21.38-.32.44V5.91c0-.08-.05-.15-.13-.15h-1.41c-.06 0-.13.07-.13.15v10.31c0 .07.05.15.13.15h1.41c.08 0 .13-.06.13-.15v-5.31c.06.04.11.1.15.19l2.46 4.95c.13.26.33.32.61.32h1.38c.09 0 .11-.08.07-.15l-3.03-5.67M27.56 15.04h-.26c-.33 0-.41-.13-.41-.38V5.91c0-.1-.05-.15-.13-.15h-4.33c-.11 0-.17.07-.17.15v.77c0 2.56-.15 5.86-1.53 8.36h-.48c-.13 0-.17.06-.17.17v3.09c0 .11.08.15.15.15h1.04c.23 0 .32-.17.32-.32v-1.76h4.63v1.93c0 .08.06.15.15.15h1.1c.13 0 .26-.11.26-.32v-2.92c0-.11-.07-.17-.17-.17zm-2.34 0h-3.13c1.1-1.84 1.53-3.92 1.68-6.46.05-.55.07-1.12.07-1.48h1.38v7.94zM31.96 5.51c-2.33 0-3.37 2.88-3.37 6.01 0 3.2 1.47 5.11 3.63 5.11 1.06 0 1.99-.41 2.47-.7.08-.04.11-.11.08-.19l-.17-.72c-.02-.09-.06-.13-.17-.13-.09 0-.71.23-1.6.23-1.67 0-2.44-1.41-2.44-3.28v-.5s.84.1 1.34.1h3.15v-.89c0-3.28-1.19-5.04-2.92-5.04zm-.23 4.6c-.5 0-1.28.08-1.28.08s0-.32.05-.66c.19-1.8.64-2.71 1.4-2.71.69 0 1.12.94 1.23 2.56.02.34.02.73.02.73h-1.42zM43.01 42.84h3.56c3.27 0 5.99-1.84 5.99-6.21 0-4.23-2.68-5.74-6.18-5.74h-.89v-6.5c0-.1-.1-.23-.24-.23h-2.43c-.2 0-.27.1-.27.26v18.1c0 .23.14.32.46.32zm2.48-9.67h.83c2.18 0 3.45 1.45 3.45 3.49 0 2.53-1.3 3.95-3.32 3.95h-.96v-7.44z"/><g transform="translate(0 .5)"><mask id="d" fill="#fff"><use xlink:href="#c"/></mask><path fill="#161617" d="M38.81 23.65h-2.36c-.2 0-.31.15-.31.26v7.13h-4.38v-7.13c0-.18-.07-.26-.26-.26h-2.37c-.19 0-.3.11-.3.26v18.14c0 .18.07.29.26.29h2.41c.15 0 .26-.11.26-.29v-8.66h4.38v8.66c0 .18.11.29.31.29h2.36c.19 0 .26-.15.26-.29V23.91c0-.15-.11-.26-.26-.26M13.18 39.99h-.46c-.57 0-.72-.22-.72-.67V23.91c0-.18-.08-.26-.23-.26H4.15c-.19 0-.3.11-.3.26v1.35c0 4.51-.27 10.33-2.71 14.73H.31c-.23 0-.31.12-.31.3v5.45c0 .19.15.26.27.26H2.1c.41 0 .57-.3.57-.56v-3.1h8.15v3.4c0 .15.11.26.26.26h1.95c.22 0 .45-.18.45-.56v-5.15c0-.18-.11-.3-.3-.3zm-4.12 0H3.54c1.95-3.24 2.71-6.9 2.97-11.38.08-.97.12-1.97.12-2.61h2.43v13.99z" mask="url(#d)"/></g><path fill="#161617" d="M20.93 23.71c-4.11 0-5.94 5.07-5.94 10.59 0 5.63 2.59 8.99 6.4 8.99 1.87 0 3.51-.71 4.34-1.23.15-.07.19-.19.15-.33l-.3-1.27c-.04-.15-.11-.23-.3-.23-.16 0-1.26.41-2.82.41-2.93 0-4.31-2.49-4.31-5.78v-.88s1.49.17 2.37.17h5.56v-1.57c0-5.78-2.1-8.87-5.15-8.87zm-.41 8.09c-.88 0-2.25.15-2.25.15s0-.56.07-1.16c.35-3.17 1.15-4.77 2.48-4.77 1.22 0 1.98 1.64 2.17 4.51.04.6.04 1.27.04 1.27h-2.51zM63.32 24.15h-7.99c-.19 0-.3.11-.3.26v18.14c0 .18.07.29.26.29h2.4c.16 0 .27-.11.27-.29V26.52h5.36c.12 0 .27-.07.27-.26v-1.85c0-.15-.11-.26-.27-.26M75.17 24.15h-2.18c-.13 0-.23.07-.27.16-.02.02-4.47 11.9-4.47 11.9l-.29.95V24.41c0-.18-.08-.26-.27-.26h-2.24c-.19 0-.26.13-.26.26v17.95c0 .37.08.48.27.48h2.23c.11 0 .2-.05.24-.15l4.57-12 .19-.62v12.48c0 .18.11.29.3.29h2.18c.19 0 .27-.15.27-.48V24.31c0-.1-.12-.16-.27-.16"/><path fill="#F37A1F" d="M108.74 24.1h-1.54v9.35c0 1.68-.73 2.64-2.91 3.13l-13.92 3.85s-1.19.31-1.19-.74c0-.87 1.06-.98 1.23-1.14l-.07.03 12.7-4.93c1.04-.57 1.9-1.88 1.9-2.91V15.99c0-2.33-2.33-1.53-2.83-1.23-.56.32-14.72 8.06-14.72 8.06-1.04.57-1.89 1.89-1.89 2.92v14.69c0 1.03 1.51 2.4 2.48 2.41h20.76c1.24 0 2.26-.84 2.26-1.87V25.98c0-1.04-1.02-1.88-2.26-1.88zM98.7 22.98c.98-.64 1.91-.43 2.08.46.17.89-.4 2.02-1.38 2.66-.98.63-1.91.43-2.08-.47-.16-.89.4-2.02 1.38-2.65z"/></g></svg>