<svg name="subscribe_bg" xmlns="http://www.w3.org/2000/svg" width="903" height="293"><g fill="none" fill-rule="evenodd" opacity=".04"><path fill="#4A4A4A" d="M661.5 182.603c-.006.047 0 .09-.008.14-.863 5.45-5.97 9.17-11.406 8.31-5.437-.862-9.144-5.98-8.28-11.428.007-.047.026-.087.033-.136-31.344-5.85-38.598-12.257-37.614-18.47.308-1.946 1.448-3.644 3.774-4.956 17.508-14.22 21.203-8.93 25.093-33.49 2.593-16.373 5.64-31.278 25.787-30.858-.247-.965-.312-1.993-.147-3.037.648-4.09 4.478-6.88 8.554-6.234 4.076.646 6.857 4.483 6.21 8.57-.166 1.045-.545 2.003-1.078 2.845 19.29 5.827 17.58 20.944 14.988 37.318-3.9 24.632 1.287 20.635 13.624 39.765 1.706 1.916 2.25 3.826 1.95 5.717-.984 6.21-10.074 10.026-41.483 5.943zm-10.633 3.52c2.72.43 5.273-1.43 5.704-4.154.003-.016 0-.032.003-.046-1.61-.233-3.207-.46-4.925-.732-1.72-.273-3.305-.55-4.91-.826-.003.015-.01.03-.013.043-.43 2.723 1.42 5.28 4.142 5.712zm15.64-98.746c-1.36-.216-2.634.714-2.85 2.076-.216 1.363.707 2.643 2.068 2.86 1.36.214 2.636-.717 2.852-2.08.216-1.363-.71-2.64-2.07-2.856zm30.792 86.893s-3.09-4.827-8.363-11.407c-7.2-9-9.535-13.094-6.467-32.468 2.997-18.92 3.66-29.79-17.527-33.145-21.188-3.356-23.916 7.185-26.913 26.107-3.07 19.376-6.558 22.55-16.19 28.886-6.914 4.546-11.384 8.174-11.384 8.174-1.178.666-1.255 1.15-1.292 1.384-.048.305-.668 7.495 43.266 14.454 43.933 6.958 45.566-.072 45.614-.376.03-.197.104-.66-.745-1.608z"/><g fill="#4A4A4A"><path d="M598.082 222.264c23.147 0 41.978 18.817 41.978 41.944 0 23.128-18.83 41.944-41.978 41.944-23.146 0-41.978-18.816-41.978-41.944 0-23.127 18.832-41.944 41.978-41.944zm0-4.66c-25.762 0-46.642 20.865-46.642 46.604 0 25.742 20.88 46.604 46.642 46.604 25.76 0 46.643-20.862 46.643-46.604 0-25.74-20.884-46.604-46.643-46.604z"/><path d="M610.988 288.184c-4.568 2.163-8.822 2.936-14.26 2.936-13 0-24.266-9.2-24.266-24.285 0-15.775 11.502-29.54 29.15-29.54 13.872 0 23.405 9.436 23.405 22.35 0 11.443-6.54 18.402-14.5 18.402-3.466 0-6.223-1.93-6.38-6.342h-.24c-2.597 4.256-6.144 6.342-10.558 6.342-4.886 0-8.75-3.71-8.75-9.9 0-9.506 7.41-18.17 18.597-18.17 3.47 0 6.938.774 8.986 1.78l-2.525 14.152c-.943 5.18-.24 7.578 2.13 7.578 3.703.156 8.035-4.565 8.035-13.456 0-10.672-6.7-18.48-18.91-18.48-12.45 0-23.09 9.51-23.09 24.746 0 12.912 8.513 20.49 20.172 20.49 4.256 0 8.51-.844 11.663-2.553l1.34 3.95zm-5.75-32.557c-.79-.235-1.81-.466-3.15-.466-5.99 0-10.717 5.722-10.717 12.296 0 3.17 1.5 5.334 4.414 5.334 3.703 0 7.246-4.643 8.04-9.2l1.413-7.963z"/></g><g fill="#4A4A4A"><path d="M889.91 116.748c15.615 0 28.32 12.695 28.32 28.3 0 15.602-12.705 28.297-28.32 28.297-15.618 0-28.323-12.695-28.323-28.298 0-15.604 12.705-28.3 28.322-28.3zm0-3.144c-17.383 0-31.47 14.077-31.47 31.443 0 17.367 14.087 31.442 31.47 31.442 17.377 0 31.467-14.076 31.467-31.443 0-17.366-14.09-31.443-31.468-31.443z"/><path d="M898.616 161.223c-3.082 1.46-5.952 1.98-9.622 1.98-8.77 0-16.37-6.206-16.37-16.384 0-10.644 7.76-19.93 19.666-19.93 9.36 0 15.79 6.365 15.79 15.078 0 7.72-4.41 12.415-9.782 12.415-2.34 0-4.2-1.302-4.305-4.278h-.16c-1.753 2.87-4.147 4.278-7.125 4.278-3.295 0-5.902-2.503-5.902-6.68 0-6.412 5-12.257 12.546-12.257 2.342 0 4.68.522 6.063 1.2l-1.703 9.548c-.637 3.496-.162 5.113 1.437 5.113 2.497.106 5.42-3.08 5.42-9.078 0-7.2-4.52-12.47-12.758-12.47-8.4 0-15.58 6.417-15.58 16.697 0 8.71 5.745 13.824 13.61 13.824 2.872 0 5.742-.57 7.87-1.722l.904 2.665zm-3.88-21.966c-.532-.16-1.22-.314-2.125-.314-4.04 0-7.23 3.86-7.23 8.295 0 2.14 1.012 3.598 2.978 3.598 2.498 0 4.888-3.132 5.423-6.207l.956-5.373z"/></g><path fill="#4A4A4A" d="M536.954 35.514l-79.28 21.244-.688.184-1.668.447-1.15.307 14.962 55.84 86.297-23.124-14.962-55.84-2.985.8-.526.14zm-2.516 4.415L510.13 82.57c-1.108 1.943-3.76 2.654-5.693 1.524l-42.376-24.77 72.378-19.395zm-75.51 21.722l28.484 16.652-16.34 28.666-12.144-45.318zm15.473 46.73l16.116-28.264 12.14 7.098c1.795 1.05 3.885 1.334 5.882.798 1.997-.535 3.666-1.826 4.694-3.632l6.965-12.218 28.087 16.422-73.883 19.797zM550.465 85.7l-28.486-16.656 16.342-28.668 12.144 45.324zM1693.066 422.774l-79.28 21.243-.687.184-1.67.45-1.15.307 14.963 55.84 86.296-23.124-14.963-55.84-2.985.8-.526.14zm-2.516 4.415l-24.308 42.638c-1.108 1.945-3.76 2.656-5.693 1.526l-42.377-24.772 72.377-19.393zm-75.51 21.722l28.484 16.65-16.34 28.668-12.144-45.318zm15.473 46.73l16.115-28.264 12.14 7.097c1.795 1.05 3.885 1.334 5.882.8 1.997-.536 3.666-1.827 4.694-3.633l6.965-12.22 28.086 16.423-73.883 19.797zm76.063-22.684l-28.486-16.656 16.342-28.668 12.144 45.324zM736.45 72.816l20.205 40.654L808.295.48l-112.99 54.222 41.144 18.114zm.94-4.017L705.815 54.98l86.714-41.364-55.14 55.18zm19.422 34.16L741.29 71.75l55.18-55.504-39.658 86.713zM221.046 185.203c-.004.033 0 .064-.005.098-.6 3.797-4.16 6.39-7.946 5.79-3.788-.6-6.37-4.165-5.77-7.96.006-.034.02-.062.025-.096-21.838-4.076-26.89-8.538-26.206-12.868.215-1.355 1.01-2.538 2.63-3.452 12.197-9.908 14.77-6.222 17.48-23.33 1.808-11.41 3.93-21.792 17.966-21.5-.172-.673-.217-1.39-.102-2.116.45-2.85 3.12-4.792 5.96-4.342 2.84.45 4.777 3.123 4.326 5.97-.115.73-.38 1.395-.75 1.982 13.44 4.06 12.248 14.59 10.442 25.998-2.718 17.16.896 14.376 9.492 27.704 1.188 1.335 1.566 2.666 1.358 3.983-.686 4.326-7.02 6.985-28.9 4.14zm-7.408 2.452c1.895.3 3.674-.996 3.974-2.893.002-.01 0-.022 0-.032-1.12-.162-2.233-.32-3.43-.51s-2.302-.382-3.42-.575c-.003.01-.008.02-.01.03-.3 1.897.99 3.68 2.886 3.98zm10.896-68.794c-.948-.15-1.835.498-1.985 1.448-.152.95.492 1.84 1.44 1.99.947.15 1.836-.498 1.987-1.447.15-.95-.495-1.84-1.443-1.99zm21.453 60.538s-2.15-3.363-5.826-7.947c-5.015-6.27-6.642-9.122-4.504-22.62 2.087-13.18 2.55-20.753-12.212-23.09-14.76-2.34-16.66 5.005-18.75 18.188-2.137 13.498-4.568 15.71-11.28 20.124-4.815 3.167-7.93 5.694-7.93 5.694-.82.465-.874.802-.9.965-.033.213-.465 5.222 30.143 10.07s31.745-.05 31.778-.262c.022-.137.073-.46-.518-1.12z"/><path d="M152.746 61.13h77.518v77.455h-77.518z"/><path stroke="#4A4A4A" stroke-width="2" d="M215.812 71.632v14.44H201.36"/><path stroke="#4A4A4A" stroke-width="2" d="M164.57 99.2c0-14.502 11.816-26.255 26.396-26.255 7.78 0 14.775 3.347 19.605 8.674.96 1.058 1.836 2.197 2.614 3.4M168.512 128.083v-14.44h14.453"/><path stroke="#4A4A4A" stroke-width="2" d="M218.44 100.514c0 14.502-11.816 26.256-26.395 26.256-7.78 0-14.775-3.35-19.606-8.674-.96-1.06-1.836-2.198-2.614-3.402"/><g fill="#4A4A4A"><path d="M357.42 107.693c17.454 0 31.655 14.19 31.655 31.63 0 17.438-14.2 31.627-31.655 31.627-17.454 0-31.654-14.19-31.654-31.628 0-17.44 14.2-31.63 31.654-31.63zm0-3.514c-19.427 0-35.172 15.732-35.172 35.142 0 19.41 15.745 35.143 35.172 35.143 19.424 0 35.172-15.732 35.172-35.143 0-19.41-15.748-35.143-35.172-35.143z"/><path d="M367.152 157.402c-3.445 1.63-6.652 2.214-10.754 2.214-9.803 0-18.298-6.938-18.298-18.314 0-11.895 8.673-22.274 21.982-22.274 10.46 0 17.65 7.114 17.65 16.853 0 8.63-4.932 13.877-10.936 13.877-2.613 0-4.692-1.455-4.81-4.782h-.18c-1.96 3.21-4.634 4.782-7.962 4.782-3.684 0-6.598-2.797-6.598-7.465 0-7.168 5.587-13.7 14.023-13.7 2.616 0 5.23.582 6.776 1.34l-1.904 10.672c-.71 3.907-.18 5.715 1.606 5.715 2.792.117 6.058-3.443 6.058-10.147 0-8.048-5.05-13.936-14.258-13.936-9.39 0-17.414 7.172-17.414 18.66 0 9.737 6.42 15.452 15.213 15.452 3.21 0 6.417-.638 8.795-1.927l1.01 2.98zm-4.336-24.55c-.595-.18-1.365-.352-2.375-.352-4.516 0-8.08 4.313-8.08 9.27 0 2.392 1.13 4.023 3.327 4.023 2.792 0 5.464-3.5 6.062-6.938l1.066-6.004z"/></g><path fill="#4A4A4A" d="M102.95 121.902l-98.563 26.41-.855.23-2.074.554-1.43.383L18.63 218.9l107.287-28.747-18.602-69.42-3.71.993-.654.176zm-3.128 5.488l-30.22 53.01c-1.378 2.418-4.676 3.302-7.078 1.897L9.84 151.5l89.982-24.11zM5.946 154.397l35.413 20.7-20.318 35.64-15.096-56.34zm19.237 58.096l20.034-35.138 15.094 8.823c2.23 1.305 4.83 1.658 7.313.993 2.483-.664 4.557-2.27 5.835-4.515l8.66-15.19 34.918 20.416-91.853 24.613zm94.564-28.2l-35.415-20.71 20.316-35.64 15.098 56.35zM353.11 222.976l15.156 30.494L407 168.718l-84.752 40.67 30.862 13.588zm.706-3.012L330.132 209.6l65.042-31.027-41.358 41.39zm14.568 25.622l-11.644-23.41 41.39-41.632-29.746 65.042z"/></g></svg>